<?xml version="1.0" encoding="UTF-8" standalone="no"?>
<!DOCTYPE svg PUBLIC "-//W3C//DTD SVG 1.1//EN"
 "http://www.w3.org/Graphics/SVG/1.1/DTD/svg11.dtd">
<!-- Generated by graphviz version 14.0.4 (20251115.1723)
 -->
<!-- Title: G Pages: 1 -->
<svg width="405pt" height="398pt"
 viewBox="0.00 0.00 405.00 398.00" xmlns="http://www.w3.org/2000/svg" xmlns:xlink="http://www.w3.org/1999/xlink">
<g id="graph0" class="graph" transform="scale(1 1) rotate(0) translate(4 394)">
<title>G</title>
<polygon fill="white" stroke="none" points="-4,4 -4,-394 400.86,-394 400.86,4 -4,4"/>
<!-- Aldgate -->
<g id="node1" class="node">
<title>Aldgate</title>
<ellipse fill="none" stroke="black" cx="56.86" cy="-372" rx="40.09" ry="18"/>
<text xml:space="preserve" text-anchor="middle" x="56.86" y="-366.95" font-family="Times,serif" font-size="14.00">Aldgate</text>
</g>
<!-- Blackfriars -->
<g id="node2" class="node">
<title>Blackfriars</title>
<ellipse fill="none" stroke="black" cx="186.86" cy="-283.5" rx="51.86" ry="18"/>
<text xml:space="preserve" text-anchor="middle" x="186.86" y="-278.45" font-family="Times,serif" font-size="14.00">Blackfriars</text>
</g>
<!-- Aldgate&#45;&gt;Blackfriars -->
<g id="edge1" class="edge">
<title>Aldgate&#45;&gt;Blackfriars</title>
<path fill="none" stroke="black" d="M82.96,-357.96C94.79,-351.74 108.8,-343.93 120.86,-336 133.9,-327.43 147.6,-317 159.12,-307.77"/>
<polygon fill="black" stroke="black" points="161.11,-310.66 166.67,-301.64 156.7,-305.23 161.11,-310.66"/>
<text xml:space="preserve" text-anchor="middle" x="150.12" y="-322.7" font-family="Times,serif" font-size="14.00">63</text>
</g>
<!-- Farringdon -->
<g id="node3" class="node">
<title>Farringdon</title>
<ellipse fill="none" stroke="black" cx="51.86" cy="-18" rx="51.86" ry="18"/>
<text xml:space="preserve" text-anchor="middle" x="51.86" y="-12.95" font-family="Times,serif" font-size="14.00">Farringdon</text>
</g>
<!-- Aldgate&#45;&gt;Farringdon -->
<g id="edge2" class="edge">
<title>Aldgate&#45;&gt;Farringdon</title>
<path fill="none" stroke="black" d="M39.78,-355.58C23.96,-339.53 2.86,-312.83 2.86,-284.5 2.86,-284.5 2.86,-284.5 2.86,-105.5 2.86,-82.7 15.91,-60.41 28.53,-44.16"/>
<polygon fill="black" stroke="black" points="31.19,-46.44 34.86,-36.5 25.79,-41.99 31.19,-46.44"/>
<text xml:space="preserve" text-anchor="middle" x="16.36" y="-189.95" font-family="Times,serif" font-size="14.00">2028</text>
</g>
<!-- Liverpool Street -->
<g id="node4" class="node">
<title>Liverpool Street</title>
<ellipse fill="none" stroke="black" cx="101.86" cy="-106.5" rx="71.31" ry="18"/>
<text xml:space="preserve" text-anchor="middle" x="101.86" y="-101.45" font-family="Times,serif" font-size="14.00">Liverpool Street</text>
</g>
<!-- Aldgate&#45;&gt;Liverpool Street -->
<g id="edge3" class="edge">
<title>Aldgate&#45;&gt;Liverpool Street</title>
<path fill="none" stroke="black" d="M55.56,-353.66C53.89,-327.1 51.87,-274.83 57.86,-231 63.39,-190.62 66.29,-180.16 81.86,-142.5 82.96,-139.84 84.23,-137.13 85.57,-134.46"/>
<polygon fill="black" stroke="black" points="88.56,-136.29 90.27,-125.83 82.41,-132.94 88.56,-136.29"/>
<text xml:space="preserve" text-anchor="middle" x="71.36" y="-234.2" font-family="Times,serif" font-size="14.00">1048</text>
</g>
<!-- Old Street -->
<g id="node5" class="node">
<title>Old Street</title>
<ellipse fill="none" stroke="black" cx="284.86" cy="-195" rx="48.79" ry="18"/>
<text xml:space="preserve" text-anchor="middle" x="284.86" y="-189.95" font-family="Times,serif" font-size="14.00">Old Street</text>
</g>
<!-- Aldgate&#45;&gt;Old Street -->
<g id="edge4" class="edge">
<title>Aldgate&#45;&gt;Old Street</title>
<path fill="none" stroke="black" d="M95.79,-367.13C138.88,-360.78 207.55,-344.24 247.86,-301.5 267.83,-280.34 277.1,-247.8 281.35,-224.45"/>
<polygon fill="black" stroke="black" points="284.79,-225.11 282.91,-214.68 277.88,-224.01 284.79,-225.11"/>
<text xml:space="preserve" text-anchor="middle" x="273.04" y="-278.45" font-family="Times,serif" font-size="14.00">7</text>
</g>
<!-- Blackfriars&#45;&gt;Aldgate -->
<g id="edge5" class="edge">
<title>Blackfriars&#45;&gt;Aldgate</title>
<path fill="none" stroke="black" d="M181.69,-301.47C177.47,-312.69 170.45,-326.94 159.86,-336 144.58,-349.08 124.19,-357.33 105.58,-362.51"/>
<polygon fill="black" stroke="black" points="104.89,-359.07 96.05,-364.92 106.61,-365.86 104.89,-359.07"/>
<text xml:space="preserve" text-anchor="middle" x="179.53" y="-322.7" font-family="Times,serif" font-size="14.00">72</text>
</g>
<!-- Blackfriars&#45;&gt;Liverpool Street -->
<g id="edge6" class="edge">
<title>Blackfriars&#45;&gt;Liverpool Street</title>
<path fill="none" stroke="black" d="M187.37,-265.16C187.33,-236.73 183.48,-179.67 155.86,-142.5 152.24,-137.62 147.72,-133.24 142.85,-129.36"/>
<polygon fill="black" stroke="black" points="145.22,-126.75 135.05,-123.8 141.16,-132.45 145.22,-126.75"/>
<text xml:space="preserve" text-anchor="middle" x="192.96" y="-189.95" font-family="Times,serif" font-size="14.00">560</text>
</g>
<!-- Blackfriars&#45;&gt;Old Street -->
<g id="edge7" class="edge">
<title>Blackfriars&#45;&gt;Old Street</title>
<path fill="none" stroke="black" d="M219.39,-269.06C230.49,-263.46 242.46,-256.21 251.86,-247.5 259.48,-240.44 266.09,-231.27 271.35,-222.62"/>
<polygon fill="black" stroke="black" points="274.25,-224.61 276.14,-214.18 268.16,-221.15 274.25,-224.61"/>
<text xml:space="preserve" text-anchor="middle" x="268.32" y="-234.2" font-family="Times,serif" font-size="14.00">1</text>
</g>
<!-- Farringdon&#45;&gt;Aldgate -->
<g id="edge8" class="edge">
<title>Farringdon&#45;&gt;Aldgate</title>
<path fill="none" stroke="black" d="M102.6,-22.3C192.38,-29.55 369.86,-50.79 369.86,-105.5 369.86,-284.5 369.86,-284.5 369.86,-284.5 369.86,-338.18 196.63,-359.87 107.92,-367.45"/>
<polygon fill="black" stroke="black" points="107.69,-363.96 98.01,-368.26 108.27,-370.93 107.69,-363.96"/>
<text xml:space="preserve" text-anchor="middle" x="383.36" y="-189.95" font-family="Times,serif" font-size="14.00">1604</text>
</g>
<!-- Farringdon&#45;&gt;Liverpool Street -->
<g id="edge9" class="edge">
<title>Farringdon&#45;&gt;Liverpool Street</title>
<path fill="none" stroke="black" d="M48.47,-36.19C47.27,-46.69 47.36,-60.06 52.86,-70.5 55.23,-74.99 58.46,-79.04 62.15,-82.65"/>
<polygon fill="black" stroke="black" points="59.69,-85.16 69.61,-88.88 64.18,-79.79 59.69,-85.16"/>
<text xml:space="preserve" text-anchor="middle" x="66.36" y="-57.2" font-family="Times,serif" font-size="14.00">4881</text>
</g>
<!-- Farringdon&#45;&gt;Old Street -->
<g id="edge10" class="edge">
<title>Farringdon&#45;&gt;Old Street</title>
<path fill="none" stroke="black" d="M96.72,-27.53C153.39,-40.97 248.62,-73.07 290.86,-142.5 295.08,-149.42 295.58,-157.85 294.47,-165.86"/>
<polygon fill="black" stroke="black" points="291.06,-165.08 292.26,-175.6 297.89,-166.63 291.06,-165.08"/>
<text xml:space="preserve" text-anchor="middle" x="283.74" y="-101.45" font-family="Times,serif" font-size="14.00">15</text>
</g>
<!-- Liverpool Street&#45;&gt;Aldgate -->
<g id="edge11" class="edge">
<title>Liverpool Street&#45;&gt;Aldgate</title>
<path fill="none" stroke="black" d="M100.46,-124.93C97.1,-163.46 87.39,-258.61 67.86,-336 67.28,-338.32 66.63,-340.7 65.95,-343.09"/>
<polygon fill="black" stroke="black" points="62.63,-341.99 63.07,-352.57 69.32,-344.02 62.63,-341.99"/>
<text xml:space="preserve" text-anchor="middle" x="97.85" y="-234.2" font-family="Times,serif" font-size="14.00">731</text>
</g>
<!-- Liverpool Street&#45;&gt;Blackfriars -->
<g id="edge12" class="edge">
<title>Liverpool Street&#45;&gt;Blackfriars</title>
<path fill="none" stroke="black" d="M109.55,-124.8C118.95,-145.79 135.48,-182.22 150.61,-213 157.55,-227.12 165.62,-242.66 172.38,-255.46"/>
<polygon fill="black" stroke="black" points="169.21,-256.95 176.99,-264.14 175.39,-253.67 169.21,-256.95"/>
<text xml:space="preserve" text-anchor="middle" x="160.74" y="-189.95" font-family="Times,serif" font-size="14.00">729</text>
</g>
<!-- Liverpool Street&#45;&gt;Farringdon -->
<g id="edge13" class="edge">
<title>Liverpool Street&#45;&gt;Farringdon</title>
<path fill="none" stroke="black" d="M95.84,-88.24C91.93,-77.96 86.35,-64.85 79.86,-54 77.95,-50.79 75.76,-47.56 73.48,-44.42"/>
<polygon fill="black" stroke="black" points="76.32,-42.38 67.44,-36.61 70.79,-46.66 76.32,-42.38"/>
<text xml:space="preserve" text-anchor="middle" x="101.87" y="-57.2" font-family="Times,serif" font-size="14.00">4497</text>
</g>
<!-- Liverpool Street&#45;&gt;Old Street -->
<g id="edge14" class="edge">
<title>Liverpool Street&#45;&gt;Old Street</title>
<path fill="none" stroke="black" d="M150.82,-120.01C169.5,-125.68 190.67,-133.22 208.86,-142.5 219.99,-148.18 221.34,-151.9 231.61,-159 238.1,-163.48 245.09,-168.17 251.82,-172.62"/>
<polygon fill="black" stroke="black" points="249.83,-175.5 260.11,-178.07 253.68,-169.65 249.83,-175.5"/>
<text xml:space="preserve" text-anchor="middle" x="241.74" y="-145.7" font-family="Times,serif" font-size="14.00">432</text>
</g>
<!-- Old Street&#45;&gt;Aldgate -->
<g id="edge15" class="edge">
<title>Old Street&#45;&gt;Aldgate</title>
<path fill="none" stroke="black" d="M289.37,-213.06C294.22,-235.47 299.02,-275.06 280.86,-301.5 264.74,-324.98 253.25,-325.28 226.86,-336 188.24,-351.69 141.7,-360.64 107.1,-365.56"/>
<polygon fill="black" stroke="black" points="106.79,-362.07 97.34,-366.87 107.72,-369.01 106.79,-362.07"/>
<text xml:space="preserve" text-anchor="middle" x="299.74" y="-278.45" font-family="Times,serif" font-size="14.00">33</text>
</g>
<!-- Old Street&#45;&gt;Blackfriars -->
<g id="edge16" class="edge">
<title>Old Street&#45;&gt;Blackfriars</title>
<path fill="none" stroke="black" d="M257.29,-210.2C247.4,-215.96 236.51,-223.12 227.61,-231 219.22,-238.44 211.25,-247.77 204.63,-256.44"/>
<polygon fill="black" stroke="black" points="202,-254.11 198.91,-264.24 207.65,-258.25 202,-254.11"/>
<text xml:space="preserve" text-anchor="middle" x="237.74" y="-234.2" font-family="Times,serif" font-size="14.00">132</text>
</g>
<!-- Old Street&#45;&gt;Farringdon -->
<g id="edge17" class="edge">
<title>Old Street&#45;&gt;Farringdon</title>
<path fill="none" stroke="black" d="M297.9,-177.48C301.53,-171.92 305,-165.48 306.86,-159 313.14,-137.23 298.31,-92.54 294.86,-88.5 270.96,-60.47 173.87,-39.31 109.88,-28.06"/>
<polygon fill="black" stroke="black" points="110.68,-24.65 100.23,-26.4 109.49,-31.55 110.68,-24.65"/>
<text xml:space="preserve" text-anchor="middle" x="312.72" y="-101.45" font-family="Times,serif" font-size="14.00">24</text>
</g>
<!-- Old Street&#45;&gt;Liverpool Street -->
<g id="edge18" class="edge">
<title>Old Street&#45;&gt;Liverpool Street</title>
<path fill="none" stroke="black" d="M278.16,-177.14C272.74,-165.68 264.01,-151.08 251.86,-142.5 231.22,-127.91 205.37,-119.33 180.97,-114.3"/>
<polygon fill="black" stroke="black" points="181.85,-110.9 171.38,-112.51 180.57,-117.78 181.85,-110.9"/>
<text xml:space="preserve" text-anchor="middle" x="277" y="-145.7" font-family="Times,serif" font-size="14.00">108</text>
</g>
</g>
</svg>
